<svg xmlns="http://www.w3.org/2000/svg" width="1000" height="1000" viewBox="0 0 1000 1000" version="1.1"><path d="M 412.924 76.685 C 408.349 77.095, 408.349 77.095, 412.621 87.798 C 423.146 114.158, 428.010 139.969, 427.992 169.356 C 427.984 181.263, 426.804 197.041, 425.498 202.690 C 425.038 204.681, 425.593 204.516, 431.589 200.873 C 444.003 193.331, 461.124 188, 472.930 188 C 477.944 188, 477.944 188, 465.704 194.336 C 407.753 224.333, 362.684 270.171, 333 329.303 C 323.500 348.228, 323.500 348.228, 302 356.928 C 219.170 390.443, 151.361 432.739, 88.072 490.363 C 75.845 501.496, 43.512 534.867, 44.260 535.583 C 44.392 535.709, 50.125 534.255, 57 532.352 C 99.365 520.625, 146.121 512.722, 196 508.859 C 213.247 507.523, 272.541 507.174, 283.615 508.343 C 290.731 509.095, 290.731 509.095, 291.434 502.883 C 292.208 496.038, 296 483.454, 298.932 478 C 300.813 474.500, 300.813 474.500, 301.363 478 C 301.665 479.925, 302.191 485.775, 302.532 491 C 303.681 508.628, 309.070 535.916, 315.192 555.104 C 317.299 561.707, 317.299 561.707, 311.528 568.510 C 297.120 585.495, 286.271 607.697, 281.443 630.085 C 280.563 634.163, 279.625 643.125, 279.359 650 C 278.875 662.500, 278.875 662.500, 281.102 659.500 C 286.017 652.881, 298.898 641.129, 305.500 637.239 C 316.122 630.982, 326.618 627.801, 338.500 627.241 C 348.500 626.768, 348.500 626.768, 354.185 635.134 C 363.331 648.593, 376.647 664.637, 389 677.081 C 400.418 688.583, 418.194 704, 420.038 704 C 422.059 704, 420.816 701.782, 415.640 696.152 C 380.863 658.323, 358.295 609.580, 351.537 557.699 C 349.774 544.161, 349.492 512.226, 351.015 498.500 C 357.718 438.086, 387.542 379.980, 432.781 339.198 C 440.852 331.921, 440.852 331.921, 440.280 346.802 C 439.769 360.102, 439.933 362.422, 441.825 368.651 C 444.281 376.737, 448.327 382.775, 454.079 386.943 C 458.555 390.185, 466.699 393.635, 467.644 392.689 C 467.974 392.360, 467.627 389.032, 466.873 385.295 C 464.861 375.320, 465.129 350.605, 467.364 340 C 472.513 315.565, 484.670 294.183, 499.940 282.704 C 509.712 275.359, 511.333 276.473, 505.464 286.500 C 500.318 295.290, 490.594 315.511, 487.912 323 C 485.939 328.508, 485.577 331.485, 485.542 342.500 C 485.503 354.519, 485.700 355.926, 488.148 361.148 C 489.604 364.254, 492.626 368.626, 494.864 370.864 C 498.524 374.524, 507.507 380, 509.850 380 C 510.385 380, 510.552 374.686, 510.250 367.243 C 509.047 337.584, 514.634 316.184, 529.567 293.260 C 538.310 279.838, 554.585 263.902, 556.457 266.930 C 557.496 268.611, 553.880 277.292, 544.555 295.500 C 534.671 314.800, 531.577 324.099, 531.580 334.500 C 531.584 346.496, 538.032 357.449, 548.093 362.547 C 550.755 363.896, 553.133 365, 553.377 365 C 553.621 365, 553.839 360.163, 553.863 354.250 C 553.915 340.932, 556.185 331.571, 562.317 319.375 C 573.837 296.467, 593.578 278.011, 620.500 264.979 C 650.716 250.354, 670.964 247.548, 746.500 247.518 C 801.768 247.496, 827.768 249.252, 866 255.589 C 882.132 258.263, 911.768 265.368, 913.338 266.938 C 915.187 268.787, 898.348 293.745, 883.979 310.450 C 872.920 323.307, 856.196 339.270, 842.921 349.640 C 832.845 357.510, 811.025 372.531, 810.673 371.839 C 810.578 371.653, 808.942 368.350, 807.038 364.500 C 802.373 355.066, 789.505 342.192, 778.607 336.055 C 769.594 330.980, 754.970 325.838, 744 323.888 C 733.454 322.014, 712.466 322.248, 701.688 324.360 C 680.230 328.566, 662.239 337.823, 648.559 351.696 C 641.850 358.500, 641.850 358.500, 656.176 359.154 C 694.009 360.882, 722.152 372.348, 730.515 389.442 C 737.371 403.454, 730.775 418.174, 712.581 429.462 C 699.065 437.848, 685.250 442.161, 659.500 446.033 C 621.502 451.747, 575.335 464.212, 542.758 477.555 C 526.178 484.346, 505.784 495.007, 491.889 504.148 C 476.173 514.486, 453.823 536.352, 444.220 550.783 C 418.007 590.177, 413.361 639.296, 431.513 685.126 C 441.586 710.559, 461.174 735.280, 482.509 749.488 C 487.454 752.781, 491.631 755.537, 491.791 755.612 C 491.952 755.688, 490.540 760.868, 488.655 767.125 C 483.414 784.517, 482.492 791.320, 482.571 812 C 482.629 827.154, 483.044 832.377, 484.866 840.880 C 491.083 869.887, 502.783 894.635, 520.412 916.064 C 523.604 919.943, 526.356 922.977, 526.529 922.805 C 526.701 922.632, 525.938 918.893, 524.833 914.496 C 522.120 903.702, 521.888 881.237, 524.361 868.661 C 532.778 825.838, 561.421 785.727, 603.161 758.313 C 634.005 738.054, 672.802 727.176, 704.500 729.900 C 709.450 730.325, 713.633 730.576, 713.796 730.457 C 714.228 730.142, 701.459 721.918, 694.680 718.144 C 685.423 712.991, 668.471 706.413, 656 703.136 C 626.472 695.376, 596.914 694.370, 567.169 700.110 C 547.703 703.866, 520.782 713.961, 514.707 719.781 C 511.906 722.465, 511.906 722.465, 506.203 719.487 C 492.199 712.176, 477.788 698.837, 469.483 685.500 C 459.232 669.038, 454.009 646.687, 456.661 630.630 C 457.301 626.760, 457.301 626.760, 462.422 627.362 C 479.099 629.322, 499.392 640.730, 512.869 655.722 C 518.962 662.500, 518.962 662.500, 518.975 659 C 518.999 652.547, 516.128 636.576, 513.491 628.500 C 507.689 610.732, 494.359 591.922, 481.049 582.724 C 478.597 581.030, 478.597 581.030, 481.549 577.935 C 491.082 567.939, 507.135 557.420, 521.074 552.036 C 529.792 548.669, 541.808 545.475, 542.637 546.304 C 542.948 546.614, 542.058 548.369, 540.659 550.203 C 536.588 555.539, 530.312 568.871, 528.043 577 C 526.892 581.125, 525.676 588.550, 525.341 593.500 C 524.732 602.500, 524.732 602.500, 538.841 604.766 C 637.219 620.564, 723.998 676.254, 761.823 747.864 C 764.536 753.001, 766.985 756.820, 767.265 756.352 C 768.770 753.836, 770.387 730.884, 770.355 712.500 C 770.305 683.708, 767.256 662.045, 759.400 634.683 C 749.472 600.101, 730.873 564.853, 707.745 536.790 C 697.874 524.813, 677.411 504.693, 667.783 497.500 C 664.103 494.750, 661.071 492.179, 661.046 491.788 C 660.974 490.670, 688.387 472.792, 699.730 466.559 C 712.160 459.728, 728.080 452.497, 741.500 447.586 C 762.477 439.910, 772.986 435.545, 787.500 428.477 C 855.591 395.319, 913.913 340.832, 944.332 281.958 C 952.825 265.520, 957.718 253.318, 956.360 251.960 C 953.460 249.060, 921.066 230.696, 903.500 221.994 C 833.451 187.292, 760.179 167.325, 683.355 162.004 C 668.210 160.955, 668.210 160.955, 654.855 152.101 C 593.794 111.616, 518.485 83.878, 454 78.120 C 439.879 76.860, 419.083 76.133, 412.924 76.685 M 698.171 206.913 C 692.843 207.500, 692.843 207.500, 697.482 212.331 C 700.274 215.238, 704.786 218.424, 708.811 220.331 C 715.418 223.461, 715.718 223.504, 733.250 223.847 C 744 224.057, 751 223.821, 751 223.247 C 751 222.726, 749.631 220.411, 747.959 218.102 C 744.166 212.866, 737.322 208.449, 730.852 207.062 C 725.737 205.965, 707.532 205.882, 698.171 206.913" stroke="none" fill="#14641c" fill-rule="evenodd"/><path d="M 399.500 54.431 C 397.234 55.259, 393.529 58.018, 390.954 60.794 C 383.525 68.804, 382.175 77.169, 386.642 87.500 C 395.144 107.165, 400.698 127.635, 403.055 148 C 404.447 160.025, 403.718 189.257, 401.742 200.671 C 400.500 207.843, 400.500 207.843, 392.500 214.599 C 360.247 241.840, 330.739 279.516, 311.429 318.111 C 305.731 329.500, 305.731 329.500, 292.116 334.897 C 196.941 372.621, 101.634 436.888, 38.500 505.913 C 23.397 522.426, 21.069 525.930, 20.308 533.303 C 18.877 547.169, 30.129 560, 43.719 560 C 45.626 560, 54.457 558.005, 63.343 555.566 C 100.466 545.379, 136.938 538.622, 177 534.510 C 201.075 532.039, 245.290 530.591, 265.901 531.600 C 284.301 532.500, 284.301 532.500, 287.226 544.223 C 290.150 555.946, 290.150 555.946, 283.044 566.573 C 270.551 585.256, 262.483 604.256, 258.022 625.500 C 255.361 638.170, 254.249 660.700, 255.936 667.735 C 258.598 678.829, 267.864 686.020, 279.446 685.978 C 287.349 685.949, 292.610 683.495, 297.566 677.522 C 310.468 661.976, 317.455 656.484, 328.783 652.985 C 332.318 651.893, 335.333 651, 335.483 651 C 335.634 651, 339.011 655.330, 342.989 660.622 C 358.599 681.391, 377.588 701.080, 398.500 718.181 C 409.666 727.312, 412.095 728.442, 420.619 728.474 C 427.595 728.499, 427.790 728.571, 430.269 732 C 436.316 740.362, 446.722 751.568, 454.901 758.525 C 463.730 766.033, 463.730 766.033, 462.371 771.767 C 449.473 826.202, 466.062 890.430, 504.307 934.126 C 513.399 944.515, 517.780 947, 527 947 C 534.810 947, 540.607 944.446, 545.337 938.920 C 551.424 931.809, 552.404 924.006, 548.813 911.261 C 546.242 902.136, 545.762 883.360, 547.849 873.500 C 551.572 855.903, 560.086 836.607, 570.669 821.779 C 579.031 810.064, 594.840 793.988, 606.919 784.917 C 619.329 775.598, 638.693 765.386, 653.084 760.571 C 668.456 755.427, 679.998 753.651, 696 753.968 C 722.618 754.494, 723.713 754.312, 730.169 748.277 C 732.837 745.782, 732.837 745.782, 735.321 749.716 C 736.687 751.880, 739.833 757.666, 742.312 762.575 C 749.118 776.049, 756.681 782, 767 782 C 775.821 782, 785.322 775.754, 789.056 767.500 C 792.971 758.846, 795.678 719.657, 794.030 695.500 C 788.932 620.793, 760.618 555.644, 711.121 504.736 C 701.177 494.508, 700.752 493.898, 702.578 492.493 C 706.246 489.669, 738.548 474.152, 747.500 470.913 C 789.712 455.640, 815.998 442.552, 848 420.872 C 909.094 379.483, 955.026 324.878, 977.613 266.788 C 983.191 252.440, 981.892 242.621, 973.406 234.985 C 971.258 233.052, 963.402 227.810, 955.948 223.337 C 878.735 176.992, 791.041 147.981, 702.589 139.522 C 693.839 138.685, 684.524 138, 681.891 138 C 677.575 138, 675.840 137.175, 664.301 129.634 C 605.458 91.180, 535.573 64.692, 468.500 55.420 C 451.471 53.066, 405.057 52.400, 399.500 54.431 M 412.924 76.685 C 408.349 77.095, 408.349 77.095, 412.621 87.798 C 423.146 114.158, 428.010 139.969, 427.992 169.356 C 427.984 181.263, 426.804 197.041, 425.498 202.690 C 425.038 204.681, 425.593 204.516, 431.589 200.873 C 444.003 193.331, 461.124 188, 472.930 188 C 477.944 188, 477.944 188, 465.704 194.336 C 407.753 224.333, 362.684 270.171, 333 329.303 C 323.500 348.228, 323.500 348.228, 302 356.928 C 219.170 390.443, 151.361 432.739, 88.072 490.363 C 75.845 501.496, 43.512 534.867, 44.260 535.583 C 44.392 535.709, 50.125 534.255, 57 532.352 C 99.365 520.625, 146.121 512.722, 196 508.859 C 213.247 507.523, 272.541 507.174, 283.615 508.343 C 290.731 509.095, 290.731 509.095, 291.434 502.883 C 292.208 496.038, 296 483.454, 298.932 478 C 300.813 474.500, 300.813 474.500, 301.363 478 C 301.665 479.925, 302.191 485.775, 302.532 491 C 303.681 508.628, 309.070 535.916, 315.192 555.104 C 317.299 561.707, 317.299 561.707, 311.528 568.510 C 297.120 585.495, 286.271 607.697, 281.443 630.085 C 280.563 634.163, 279.625 643.125, 279.359 650 C 278.875 662.500, 278.875 662.500, 281.102 659.500 C 286.017 652.881, 298.898 641.129, 305.500 637.239 C 316.122 630.982, 326.618 627.801, 338.500 627.241 C 348.500 626.768, 348.500 626.768, 354.185 635.134 C 363.331 648.593, 376.647 664.637, 389 677.081 C 400.418 688.583, 418.194 704, 420.038 704 C 422.059 704, 420.816 701.782, 415.640 696.152 C 380.863 658.323, 358.295 609.580, 351.537 557.699 C 349.774 544.161, 349.492 512.226, 351.015 498.500 C 357.718 438.086, 387.542 379.980, 432.781 339.198 C 440.852 331.921, 440.852 331.921, 440.280 346.802 C 439.769 360.102, 439.933 362.422, 441.825 368.651 C 444.281 376.737, 448.327 382.775, 454.079 386.943 C 458.555 390.185, 466.699 393.635, 467.644 392.689 C 467.974 392.360, 467.627 389.032, 466.873 385.295 C 464.861 375.320, 465.129 350.605, 467.364 340 C 472.513 315.565, 484.670 294.183, 499.940 282.704 C 509.712 275.359, 511.333 276.473, 505.464 286.500 C 500.318 295.290, 490.594 315.511, 487.912 323 C 485.939 328.508, 485.577 331.485, 485.542 342.500 C 485.503 354.519, 485.700 355.926, 488.148 361.148 C 489.604 364.254, 492.626 368.626, 494.864 370.864 C 498.524 374.524, 507.507 380, 509.850 380 C 510.385 380, 510.552 374.686, 510.250 367.243 C 509.047 337.584, 514.634 316.184, 529.567 293.260 C 538.310 279.838, 554.585 263.902, 556.457 266.930 C 557.496 268.611, 553.880 277.292, 544.555 295.500 C 534.671 314.800, 531.577 324.099, 531.580 334.500 C 531.584 346.496, 538.032 357.449, 548.093 362.547 C 550.755 363.896, 553.133 365, 553.377 365 C 553.621 365, 553.839 360.163, 553.863 354.250 C 553.915 340.932, 556.185 331.571, 562.317 319.375 C 573.837 296.467, 593.578 278.011, 620.500 264.979 C 650.716 250.354, 670.964 247.548, 746.500 247.518 C 801.768 247.496, 827.768 249.252, 866 255.589 C 882.132 258.263, 911.768 265.368, 913.338 266.938 C 915.187 268.787, 898.348 293.745, 883.979 310.450 C 872.920 323.307, 856.196 339.270, 842.921 349.640 C 832.845 357.510, 811.025 372.531, 810.673 371.839 C 810.578 371.653, 808.942 368.350, 807.038 364.500 C 802.373 355.066, 789.505 342.192, 778.607 336.055 C 769.594 330.980, 754.970 325.838, 744 323.888 C 733.454 322.014, 712.466 322.248, 701.688 324.360 C 680.230 328.566, 662.239 337.823, 648.559 351.696 C 641.850 358.500, 641.850 358.500, 656.176 359.154 C 694.009 360.882, 722.152 372.348, 730.515 389.442 C 737.371 403.454, 730.775 418.174, 712.581 429.462 C 699.065 437.848, 685.250 442.161, 659.500 446.033 C 621.502 451.747, 575.335 464.212, 542.758 477.555 C 526.178 484.346, 505.784 495.007, 491.889 504.148 C 476.173 514.486, 453.823 536.352, 444.220 550.783 C 418.007 590.177, 413.361 639.296, 431.513 685.126 C 441.586 710.559, 461.174 735.280, 482.509 749.488 C 487.454 752.781, 491.631 755.537, 491.791 755.612 C 491.952 755.688, 490.540 760.868, 488.655 767.125 C 483.414 784.517, 482.492 791.320, 482.571 812 C 482.629 827.154, 483.044 832.377, 484.866 840.880 C 491.083 869.887, 502.783 894.635, 520.412 916.064 C 523.604 919.943, 526.356 922.977, 526.529 922.805 C 526.701 922.632, 525.938 918.893, 524.833 914.496 C 522.120 903.702, 521.888 881.237, 524.361 868.661 C 532.778 825.838, 561.421 785.727, 603.161 758.313 C 634.005 738.054, 672.802 727.176, 704.500 729.900 C 709.450 730.325, 713.633 730.576, 713.796 730.457 C 714.228 730.142, 701.459 721.918, 694.680 718.144 C 685.423 712.991, 668.471 706.413, 656 703.136 C 626.472 695.376, 596.914 694.370, 567.169 700.110 C 547.703 703.866, 520.782 713.961, 514.707 719.781 C 511.906 722.465, 511.906 722.465, 506.203 719.487 C 492.199 712.176, 477.788 698.837, 469.483 685.500 C 459.232 669.038, 454.009 646.687, 456.661 630.630 C 457.301 626.760, 457.301 626.760, 462.422 627.362 C 479.099 629.322, 499.392 640.730, 512.869 655.722 C 518.962 662.500, 518.962 662.500, 518.975 659 C 518.999 652.547, 516.128 636.576, 513.491 628.500 C 507.689 610.732, 494.359 591.922, 481.049 582.724 C 478.597 581.030, 478.597 581.030, 481.549 577.935 C 491.082 567.939, 507.135 557.420, 521.074 552.036 C 529.792 548.669, 541.808 545.475, 542.637 546.304 C 542.948 546.614, 542.058 548.369, 540.659 550.203 C 536.588 555.539, 530.312 568.871, 528.043 577 C 526.892 581.125, 525.676 588.550, 525.341 593.500 C 524.732 602.500, 524.732 602.500, 538.841 604.766 C 637.219 620.564, 723.998 676.254, 761.823 747.864 C 764.536 753.001, 766.985 756.820, 767.265 756.352 C 768.770 753.836, 770.387 730.884, 770.355 712.500 C 770.305 683.708, 767.256 662.045, 759.400 634.683 C 749.472 600.101, 730.873 564.853, 707.745 536.790 C 697.874 524.813, 677.411 504.693, 667.783 497.500 C 664.103 494.750, 661.071 492.179, 661.046 491.788 C 660.974 490.670, 688.387 472.792, 699.730 466.559 C 712.160 459.728, 728.080 452.497, 741.500 447.586 C 762.477 439.910, 772.986 435.545, 787.500 428.477 C 855.591 395.319, 913.913 340.832, 944.332 281.958 C 952.825 265.520, 957.718 253.318, 956.360 251.960 C 953.460 249.060, 921.066 230.696, 903.500 221.994 C 833.451 187.292, 760.179 167.325, 683.355 162.004 C 668.210 160.955, 668.210 160.955, 654.855 152.101 C 593.794 111.616, 518.485 83.878, 454 78.120 C 439.879 76.860, 419.083 76.133, 412.924 76.685 M 698.171 206.913 C 692.843 207.500, 692.843 207.500, 697.482 212.331 C 700.274 215.238, 704.786 218.424, 708.811 220.331 C 715.418 223.461, 715.718 223.504, 733.250 223.847 C 744 224.057, 751 223.821, 751 223.247 C 751 222.726, 749.631 220.411, 747.959 218.102 C 744.166 212.866, 737.322 208.449, 730.852 207.062 C 725.737 205.965, 707.532 205.882, 698.171 206.913" stroke="none" fill="#fbfbfb" fill-rule="evenodd"/></svg>