<svg xmlns="http://www.w3.org/2000/svg" width="1000" height="1000" viewBox="0 0 1000 1000" version="1.1"><path d="" stroke="none" fill="#f4fcfc" fill-rule="evenodd"/><path d="M 408.685 76.701 C 408.342 77.255, 409.656 81.486, 411.603 86.104 C 425.500 119.053, 431.106 162.455, 425.978 197.400 C 425.421 201.194, 425.138 204.471, 425.348 204.681 C 425.558 204.891, 428.145 203.472, 431.097 201.528 C 441.704 194.543, 462.025 188.051, 473.406 188.013 C 477.116 188.001, 476.773 188.277, 466.583 193.526 C 435.700 209.433, 411.498 227.437, 386.467 253.125 C 363.907 276.276, 346.523 300.934, 332.170 330.143 C 323.500 347.786, 323.500 347.786, 306.500 354.574 C 218.345 389.772, 139.901 439.421, 79.201 498.437 C 62.288 514.882, 43.530 534.864, 44.292 535.625 C 44.556 535.889, 51.428 534.280, 59.564 532.050 C 103.288 520.061, 151.759 512.145, 201.207 508.918 C 211.585 508.241, 233.823 507.926, 254.930 508.158 C 290.945 508.552, 290.945 508.552, 291.554 504.026 C 292.471 497.206, 295.625 485.938, 298.309 479.888 C 300.699 474.500, 300.699 474.500, 301.404 483 C 303.495 508.222, 307.541 530.774, 313.497 550.420 C 316.830 561.413, 316.830 561.413, 310.746 568.957 C 289.774 594.960, 278.429 625.167, 279.214 652.906 C 279.500 663.011, 279.500 663.011, 284.365 656.433 C 290.644 647.941, 300.259 640.063, 310.417 635.083 C 320.660 630.062, 328.161 628.075, 339.500 627.377 C 348.500 626.823, 348.500 626.823, 353.211 634.161 C 360.317 645.233, 374.123 662.209, 385.937 674.402 C 396.086 684.877, 418.641 705, 420.232 705 C 422.527 705, 420.200 700.887, 413.809 693.647 C 381.977 657.582, 361.656 615.340, 353.365 568 C 349.915 548.300, 349.062 518.501, 351.378 498.631 C 356.629 453.591, 373.781 410.813, 401.312 374.088 C 408.457 364.557, 439.410 332.077, 440.402 333.069 C 440.688 333.354, 440.473 337.843, 439.925 343.044 C 437.753 363.672, 442.773 379.719, 453.785 387.351 C 457.878 390.188, 467.910 394.423, 468.689 393.644 C 468.933 393.401, 468.672 391.469, 468.110 389.351 C 464.647 376.289, 464.818 352.406, 468.490 336.437 C 473.782 313.423, 486.095 293.291, 502.134 281.428 C 510.650 275.129, 510.847 277.434, 502.909 290.500 C 496.856 300.464, 488.630 318.721, 486.657 326.573 C 483.279 340.010, 483.726 351.966, 487.965 361.622 C 491.307 369.235, 499.540 376.628, 508.394 379.968 C 511.288 381.060, 511.288 381.060, 510.612 370.280 C 509.803 357.371, 511.237 339.650, 514.032 328.044 C 518.229 310.616, 530.680 289.186, 544.706 275.250 C 559.270 260.781, 559.703 264.703, 546.416 290.728 C 534.069 314.912, 531.710 321.718, 531.591 333.514 C 531.508 341.777, 531.774 343.085, 534.785 349.208 C 536.775 353.254, 539.535 357.040, 541.785 358.811 C 546.179 362.269, 553.973 366.368, 554.064 365.270 C 554.099 364.847, 554.074 360.422, 554.009 355.438 C 553.334 303.949, 607.502 256.772, 675 250.062 C 680.775 249.488, 695.400 248.568, 707.500 248.018 C 783.186 244.580, 861.671 251.300, 907.148 265.114 C 914.064 267.214, 914.064 267.214, 911.366 271.857 C 896.340 297.709, 871.502 326.223, 846.489 346.336 C 835.713 355.001, 812.733 371, 811.063 371 C 810.598 371, 809.958 369.967, 809.641 368.705 C 808.631 364.683, 801.004 353.830, 795.214 348.177 C 761.682 315.440, 696.366 313.208, 657.056 343.457 C 651.567 347.681, 641.996 357.474, 642.004 358.858 C 642.006 359.211, 647.969 359.565, 655.254 359.644 C 683.836 359.955, 708.782 367.636, 722.790 380.439 C 742.529 398.480, 732.811 421.719, 699.685 435.693 C 691.160 439.289, 676.102 443.415, 667.500 444.512 C 657.080 445.841, 633.036 450.256, 620.515 453.138 C 558.884 467.328, 509.981 488.233, 477.491 514.281 C 468.597 521.412, 450.225 541.275, 444.022 550.468 C 410.535 600.093, 412.767 668.845, 449.462 718.050 C 457.639 729.014, 473.282 744.017, 483.638 750.827 C 491.739 756.154, 491.739 756.154, 488.950 764.827 C 483.455 781.917, 482.499 788.771, 482.511 811 C 482.519 826.805, 482.937 833.561, 484.338 840.500 C 488.621 861.723, 498.295 885.290, 509.658 902.184 C 515.313 910.591, 525.905 923.825, 527.073 923.942 C 527.388 923.974, 526.774 920.738, 525.708 916.750 C 522.930 906.352, 522.267 883.494, 524.389 871.276 C 535.554 806.994, 593.043 749.596, 662.500 733.384 C 673.442 730.830, 676.233 730.579, 694.164 730.541 C 716.384 730.495, 716.091 730.690, 704.618 723.544 C 653.675 691.815, 585.005 687.365, 527.595 712.075 C 522.698 714.183, 517.239 717.315, 515.464 719.035 C 512.238 722.162, 512.238 722.162, 507.869 719.940 C 489.601 710.650, 472.171 692.680, 464.045 674.759 C 458.560 662.663, 455.465 645.598, 456.608 633.750 C 457.365 625.892, 456.961 626.052, 468.590 629.016 C 485.009 633.200, 498.607 641.493, 511.492 655.178 C 519.327 663.500, 519.327 663.500, 518.701 654 C 516.956 627.542, 503.807 600.511, 485.628 586.011 C 482.533 583.542, 480 581.250, 480 580.919 C 480 579.648, 492.780 568.182, 498.500 564.321 C 509.853 556.659, 528.452 548.690, 539.786 546.632 C 543.072 546.036, 543.072 546.036, 540.168 550.268 C 531.328 563.150, 525 582.049, 525 595.567 C 525 602.877, 525 602.877, 529.750 603.540 C 567.451 608.795, 610.130 621.969, 642.936 638.476 C 696.491 665.423, 739.868 705.647, 761.748 748.651 C 764.362 753.788, 766.777 757.993, 767.116 757.995 C 768.744 758.007, 770.495 733.731, 770.435 712 C 770.366 687.046, 769.190 675.495, 764.407 652.784 C 756.012 612.913, 736.076 571.338, 709.367 538 C 700.751 527.245, 680.927 507.391, 670.500 499.074 C 666.100 495.565, 662.500 492.220, 662.500 491.641 C 662.500 490.215, 682.134 476.941, 695.684 469.208 C 708.529 461.876, 728.282 452.747, 742.500 447.569 C 778.364 434.510, 804.987 421.376, 831.500 403.664 C 872.008 376.603, 906.781 342.230, 931.122 305.187 C 939.796 291.988, 951.951 268.731, 955.870 257.837 C 957.907 252.174, 957.907 252.174, 944.703 244.201 C 864.730 195.907, 772.220 166.973, 680.122 161.447 C 668.744 160.765, 668.744 160.765, 654.622 151.527 C 594.629 112.285, 529.172 87.357, 464 78.930 C 446.091 76.615, 409.646 75.146, 408.685 76.701 M 703 206.941 C 693.500 207.500, 693.500 207.500, 697.710 212.068 C 702.440 217.201, 709.910 221.223, 717.799 222.884 C 723.487 224.082, 742.751 224.400, 747.851 223.380 C 750.952 222.760, 750.952 222.760, 747.735 218.281 C 743.892 212.929, 737.840 209.171, 730.147 207.360 C 724.412 206.010, 719.994 205.942, 703 206.941" stroke="none" fill="#fcfcfc" fill-rule="evenodd"/></svg>